<?xml version="1.0" encoding="UTF-8"?>
<svg xmlns="http://www.w3.org/2000/svg" viewBox="0 0 1007 1192" width="1007" height="1192">
<path d="M488.89 23.91C488.89 24.22 488.89 24.53 488.89 24.85C484.26 24.88 479.63 24.91 475 24.94C475.17 24.48 475.33 24.02 475.5 23.56C479.85 22.59 484.93 22.11 488.89 23.91ZM523.09 24.02C526.9 22.14 531.19 22.9 535.5 23.03C535.67 23.66 535.83 24.29 536 24.92C531.7 24.89 527.39 24.87 523.09 24.84C523.09 24.57 523.09 24.29 523.09 24.02ZM471.84 24.86C471.73 25.07 471.61 25.29 471.5 25.5C468.67 25.63 465.83 25.75 463 25.88C463.17 25.24 463.33 24.6 463.5 23.96C465.83 23.87 468.17 23.79 470.5 23.7C470.95 24.09 471.4 24.47 471.84 24.86ZM539.93 24.89C542.75 23.72 545.26 23.94 548.5 23.96C548.67 24.61 548.83 25.26 549 25.92C546.17 25.81 543.33 25.7 540.5 25.59C540.31 25.36 540.12 25.12 539.93 24.89ZM812.83 227.29C813.87 228.53 814.91 229.78 815.95 231.02C819.07 236.4 823.67 241.12 827.38 246.15C835.22 256.79 842.54 267.85 849.33 279.18C873.33 319.22 889.79 363.86 898.76 409.56C902.63 429.27 904.32 449.42 905.09 469.5C910.3 606.48 844.08 737.22 730.88 814.39C700.63 835.01 667.76 850.59 633.29 862.72C623.46 866.18 613.38 868.95 603.31 871.69C599.05 872.84 594.63 873.59 590.5 875.11C562.17 934.81 533.83 994.5 505.5 1054.19C502.13 1049.65 500.07 1043.91 497.69 1038.78C493.79 1030.38 489.86 1022 485.86 1013.65C471.16 982.95 456.83 952.07 442.16 921.35C437.2 910.97 432.23 900.58 427.4 890.14C425.64 886.35 422.83 878.2 420.05 875.42C418.07 873.44 413.5 873.24 410.84 872.57C401.74 870.27 392.56 867.7 383.64 864.78C364.87 858.65 346.59 851.22 328.79 842.68C320.13 838.52 311 831.91 302.15 828.84C300.5 827.86 298.86 826.87 297.21 825.89C291.73 820.49 283.51 816.84 277.14 812.39C264.46 803.53 252.43 793.88 240.67 783.86C197.32 746.91 160.36 695.7 138.25 643.26C127.39 617.48 118.7 590.86 113.18 563.45C111.19 553.57 109.34 543.49 108.22 533.48C107.56 527.66 108.03 520.56 106.09 515.08C105.78 508.65 105.46 502.21 105.15 495.78C105.15 487.28 105.15 478.78 105.15 470.28C105.48 464.24 105.81 458.21 106.14 452.17C107.17 449.05 106.84 445.79 107.21 442.52C108.07 434.91 109.11 427.27 110.37 419.7C114.48 395.01 120.58 370.27 129.3 346.75C142.43 311.32 160.32 277.68 182.65 247.18C188.94 238.59 195.51 230.07 202.59 222.12C207.26 216.88 213.1 211.78 217 206.02C217.96 204.97 218.92 203.92 219.88 202.87C221.25 201.58 222.62 200.28 223.99 198.98C228.3 196.05 231.74 191.61 235.65 188.12C243.78 180.88 252.03 173.74 260.67 167.12C287.61 146.46 317.28 128.23 348.76 115.28C471.19 64.93 609.01 74.32 720.85 146.61C743.62 161.33 764.91 178.22 784.38 197.11C791.16 203.69 797.54 210.62 803.95 217.57C806.91 220.78 809.52 224.46 812.83 227.29ZM818.04 146.71C818.53 146.47 819.01 146.24 819.5 146C820.13 147.31 820.75 148.61 821.38 149.92C820.26 148.85 819.15 147.78 818.04 146.71ZM379.97 391.08C378.66 389.71 377.35 388.33 376.03 386.95C367.19 377.06 358.34 367.17 349.5 357.28C345.47 366.22 343.23 376.24 340.11 385.55C338.84 389.32 338.14 395.73 334.86 398.35C330.92 401.48 317.44 396.98 312.52 395.86C298.86 392.76 285.17 390.02 271.55 386.82C264.58 385.19 255.99 381.83 248.98 382.5C257.99 409.95 267 437.39 276.01 464.84C275.98 467.19 275.96 469.54 275.94 471.9C266.5 480.84 249.41 483.43 239.78 491.5C248.61 499.07 258.41 505.82 267.81 512.67C293.22 531.2 318.49 550.03 343.61 568.95C352.36 575.54 361.25 581.91 369.98 588.52C375.13 592.43 380.16 595.97 382.11 602.48C383.61 607.48 380.84 613.02 379.22 617.69C376.38 625.87 373.44 634.02 370.65 642.22C369.16 646.6 367.14 650.98 366.3 655.5C378.79 653.71 391.24 650.69 403.63 648.26C420.18 645.01 436.85 641.87 453.45 638.8C463.09 637.02 483.36 631.01 491.95 633.1C493.25 634.44 494.55 635.78 495.86 637.12C497.32 652.69 495.2 668.93 494.25 684.5C493.3 700.15 493.02 715.88 491.81 731.5C490.95 742.47 490.02 753.48 489.79 764.5C499.51 764.67 509.24 764.85 518.97 765.02C519.81 765.04 520.66 765.05 521.5 765.06C521.54 764.04 521.58 763.02 521.62 762C520.45 752.59 520.34 742.96 519.76 733.5C518.7 716.16 517.36 698.83 516.3 681.5C515.98 676.22 516.21 670.93 515.61 665.67C514.81 658.66 514.96 651.56 514.88 644.5C514.82 640.16 514.76 635.94 519.1 633.61C523.13 631.43 527.46 632.9 531.68 633.71C538.64 635.04 545.57 636.55 552.53 637.84C572.44 641.54 592.44 645.33 612.28 649.34C622.21 651.34 634.96 655.27 644.8 655.5C640.74 643.94 636.7 632.33 632.68 620.75C631.02 615.97 627.5 609.16 628.56 604.06C629.92 597.51 634.99 593.32 639.97 589.49C648.84 582.67 657.84 576.03 666.87 569.42C701.98 543.7 736.44 517.1 771.63 491.5C767.54 487.48 751.41 481.13 745.31 478.17C742.21 476.66 737.21 475.33 735.53 472C732.9 466.75 739.02 453.04 740.9 447.42C745.44 433.87 749.76 420.26 754.21 406.68C756.83 398.66 760.13 390.74 762.01 382.5C754.83 382.15 746.54 385.19 739.46 386.84C725.84 390.02 712.18 392.93 698.5 395.88C693.46 396.97 680.31 401.45 676.31 398.16C673.5 395.84 672.92 390.88 671.81 387.6C669.4 380.43 665.19 362.61 661.5 357.33C645.33 375.22 629.17 393.12 613 411.01C611.96 412.25 610.91 413.49 609.87 414.73C604.85 419.8 599.83 424.86 594.82 429.93C592.83 429.96 590.84 430 588.86 430.03C587.57 428.74 586.28 427.45 584.99 426.15C585.03 423.53 585.07 420.9 585.11 418.28C593.43 372.52 601.75 326.76 610.07 281C611.34 278.76 611.07 277.23 610.5 274.73C609.98 275.1 609.45 275.48 608.93 275.86C604.59 277.21 600.46 279.8 596.37 281.86C589.06 285.54 581.78 289.27 574.48 292.97C569.39 295.54 564.27 299.22 558.5 299.1C553.41 295.41 546.77 279.4 543.37 273.15C534.66 257.14 526.26 240.95 517.58 224.92C513.66 217.67 510.34 209.63 505.5 202.97C500.15 210.83 496.25 219.88 491.71 228.24C483.71 242.96 475.94 257.8 468.05 272.58C465.03 278.24 462.03 283.91 459.04 289.58C457.18 293.1 455.86 297.03 452.5 299.23C447.61 299.96 441.61 295.35 437.33 293.16C425.14 286.96 412.97 280.38 400.5 274.78C399.4 279.09 400.77 283.35 401.58 287.79C402.96 295.39 404.39 302.95 405.85 310.54C411.19 338.4 416.09 366.31 421.43 394.14C423.14 403.05 426.41 413.57 426.76 422.52C426.92 426.74 423.81 430.32 419.5 430.28C414.25 430.24 410.26 423.96 407.01 420.49C398.59 411.49 389.21 398.68 379.97 391.08ZM52.82 404C52.55 405 52.29 406 52.03 407C50.93 405.48 51.16 405.79 51.5 403.75C51.94 403.83 52.38 403.92 52.82 404ZM49.86 422C49.54 423.71 49.22 425.41 48.9 427.12C48.51 425.58 48.13 424.04 47.74 422.5C48.45 422.33 49.15 422.17 49.86 422ZM48.89 430C48.56 432.02 48.23 434.03 47.9 436.05C46.87 433.85 46.75 433.09 47 430.5C47.63 430.33 48.26 430.17 48.89 430ZM47.85 440C47.78 441.83 47.71 443.67 47.64 445.5C47.39 445.7 47.14 445.9 46.88 446.1C45.87 443.87 45.75 443.11 46.03 440.5C46.64 440.33 47.24 440.17 47.85 440ZM46.8 454C46.72 456.5 46.63 459 46.54 461.5C46.31 461.64 46.09 461.78 45.86 461.92C44.66 459.42 44.7 457.47 44.7 454.5C45.4 454.33 46.1 454.17 46.8 454ZM964.24 461C964.84 461.17 965.44 461.33 966.04 461.5C966.29 464.48 966.43 466.26 965.14 468.68C964.82 468.68 964.5 468.68 964.18 468.68C964.2 466.12 964.22 463.56 964.24 461ZM965.11 495.93C966.46 498.85 966.34 501.13 966.01 504.5C965.42 504.67 964.83 504.83 964.23 505C964.31 502.17 964.39 499.33 964.46 496.5C964.68 496.31 964.89 496.12 965.11 495.93ZM45.9 506.87C46.24 507.23 46.59 507.59 46.94 507.95C46.92 510.3 46.89 512.65 46.87 515C46.25 514.83 45.63 514.67 45.01 514.5C44.69 511.36 44.65 509.6 45.9 506.87ZM964.12 516.95C964.96 518.85 965.16 519.24 965.02 521.5C964.41 521.67 963.8 521.83 963.19 522C963.25 520.5 963.31 519 963.37 517.5C963.62 517.32 963.87 517.13 964.12 516.95ZM46.86 521.1C47.09 521.23 47.31 521.37 47.53 521.5C47.65 523.67 47.77 525.83 47.89 528C47.18 527.83 46.47 527.67 45.77 527.5C45.72 524.79 45.78 523.35 46.86 521.1ZM47.85 531.14C48.07 531.26 48.29 531.38 48.52 531.5C48.63 533.33 48.75 535.17 48.86 537C48.24 536.83 47.62 536.67 47 536.5C46.78 534 46.88 533.18 47.85 531.14ZM48.88 539.95C49.14 540.13 49.39 540.32 49.64 540.5C49.74 542.33 49.84 544.17 49.94 546C49.3 545.83 48.67 545.67 48.03 545.5C47.79 542.95 47.91 542.13 48.88 539.95ZM52.14 560.73C52.38 561.82 52.63 562.91 52.87 564C52.41 564.08 51.96 564.17 51.5 564.25C51.48 561.78 51.14 562.61 52.14 560.73ZM926.16 669.99C926.52 670.49 926.88 671 927.24 671.5C926.83 672.17 926.43 672.83 926.02 673.5C925.35 673.65 924.67 673.8 924 673.95C924.72 672.63 925.44 671.31 926.16 669.99ZM104.75 710.05C105.52 711.29 106.3 712.53 107.08 713.76C106.06 713.01 105.03 712.25 104.01 711.5C104.25 711.02 104.5 710.54 104.75 710.05ZM837.3 802.05C837.35 802.53 837.39 803.02 837.43 803.5C836.79 804.14 836.14 804.79 835.5 805.43C835.02 805.4 834.55 805.38 834.07 805.35C835.15 804.25 836.23 803.15 837.3 802.05ZM831.36 808.08C831.38 808.55 831.41 809.03 831.43 809.5C830.12 810.81 828.81 812.12 827.5 813.43C827.02 813.4 826.55 813.36 826.07 813.32C827.83 811.58 829.6 809.83 831.36 808.08ZM814.43 824.16C813.46 825.77 812.48 827.39 811.5 829C811.01 828.76 810.53 828.52 810.04 828.29C811.51 826.91 812.97 825.53 814.43 824.16ZM290.12 889.99C291.4 890.74 292.67 891.49 293.94 892.25C291.66 892.26 292.69 892.54 290 891.5C290.04 891 290.08 890.49 290.12 889.99ZM306.15 897.96C307.44 898.71 308.74 899.45 310.03 900.19C308.85 900.13 307.68 900.08 306.5 900.02C306.38 899.33 306.27 898.65 306.15 897.96ZM385.73 942.12C386.53 943.76 387.32 945.41 388.12 947.06C387.6 946.87 387.08 946.69 386.56 946.5C385.94 945.5 385.32 944.5 384.7 943.5C385.04 943.04 385.39 942.58 385.73 942.12ZM401.8 975.98C402.54 977.29 403.28 978.59 404.02 979.89C403.35 979.76 402.68 979.63 402.01 979.5C401.59 978.83 401.17 978.17 400.75 977.5C401.1 976.99 401.45 976.49 401.8 975.98ZM605.18 983.95C605.54 984.47 605.9 984.98 606.26 985.5C605.84 986.17 605.42 986.83 605 987.5C604.32 987.62 603.64 987.74 602.97 987.86C603.71 986.56 604.44 985.25 605.18 983.95ZM601.24 992.07C601.58 992.54 601.92 993.02 602.27 993.5C601.17 994.46 600.08 995.43 598.98 996.39C599.74 994.95 600.49 993.51 601.24 992.07ZM582.22 1032.03C582.56 1032.52 582.9 1033.01 583.24 1033.5C582.83 1034.17 582.43 1034.83 582.02 1035.5C581.35 1035.64 580.67 1035.78 580 1035.92C580.74 1034.62 581.48 1033.33 582.22 1032.03ZM481.84 1144.95C482.57 1146.39 483.31 1147.83 484.04 1149.27C483.03 1148.35 482.02 1147.42 481.01 1146.5C481.28 1145.98 481.56 1145.46 481.84 1144.95Z" fill="#fffffe" fill-rule="evenodd" stroke="#fffffe" stroke-width="0.25" stroke-linejoin="round"/>
<path d="M471.84 24.86C472.9 24.89 473.95 24.91 475 24.94C479.63 24.91 484.26 24.88 488.89 24.85C500.29 24.85 511.69 24.85 523.09 24.84C527.39 24.87 531.7 24.89 536 24.92C537.31 24.91 538.62 24.9 539.93 24.89C540.12 25.12 540.31 25.36 540.5 25.59C543.33 25.7 546.17 25.81 549 25.92C554.68 27.34 560.7 27.38 566.49 28.13C579.52 29.81 592.64 32.22 605.47 35.08C644.31 43.75 682.09 57.68 717.41 76.08C740.78 88.25 762.99 102.57 783.93 118.55C791.26 124.15 798.5 129.95 805.42 136.07C809.25 139.46 813.52 144.59 818.04 146.71C819.15 147.78 820.26 148.85 821.38 149.92C823.3 153.22 827.08 155.9 829.84 158.66C835.68 164.48 841.41 170.47 846.93 176.59C862.03 193.35 875.95 211.3 888.41 230.1C935.14 300.59 958.68 377 964.24 461C964.22 463.56 964.2 466.12 964.18 468.68C963.01 474.38 963.64 480.64 963.63 486.5C963.63 489.42 963.11 492.55 964.56 495C964.74 495.31 964.92 495.62 965.11 495.93C964.89 496.12 964.68 496.31 964.46 496.5C964.39 499.33 964.31 502.17 964.23 505C964.2 508.98 964.16 512.97 964.12 516.95C963.87 517.13 963.62 517.32 963.37 517.5C963.31 519 963.25 520.5 963.19 522C960.34 556.04 953.61 589.56 943.66 622.25C940.26 633.42 936.27 644.52 931.83 655.33C929.91 660.01 926.76 665.05 926.16 669.99C925.44 671.31 924.72 672.63 924 673.95C918.26 682.83 914.47 693.53 909.44 702.92C900.54 719.56 890.36 735.55 879.44 750.92C871.21 762.5 862.45 773.85 852.98 784.45C848.77 789.16 839.82 796.91 837.3 802.05C836.23 803.15 835.15 804.25 834.07 805.35C833.17 806.26 832.26 807.17 831.36 808.08C829.6 809.83 827.83 811.58 826.07 813.32C822.19 816.94 818.31 820.55 814.43 824.16C812.97 825.53 811.51 826.91 810.04 828.29C809.36 828.53 808.68 828.76 807.99 829C806.76 830.05 805.52 831.09 804.28 832.13C796.18 841.62 778.72 853.28 768.14 860.62C743.39 877.81 717.02 892.9 689.26 904.75C670.65 912.69 651.53 918.55 632.5 925.23C623.39 944.8 614.29 964.38 605.18 983.95C604.44 985.25 603.71 986.56 602.97 987.86C602.39 989.26 601.82 990.66 601.24 992.07C600.49 993.51 599.74 994.95 598.98 996.39C593.4 1008.27 587.81 1020.15 582.22 1032.03C581.48 1033.33 580.74 1034.62 580 1035.92C555.32 1087.89 530.65 1139.86 505.98 1191.83C505.62 1191.83 505.27 1191.83 504.91 1191.83C497.95 1177.65 491 1163.46 484.04 1149.27C483.31 1147.83 482.57 1146.39 481.84 1144.95C455.9 1089.93 429.96 1034.91 404.02 979.89C403.28 978.59 402.54 977.29 401.8 975.98C397.24 966.34 392.68 956.7 388.12 947.06C387.32 945.41 386.53 943.76 385.73 942.12C385.26 939.09 380.47 927.27 378.18 925.33C375.63 923.17 361.79 920.14 357.69 918.75C347.22 915.19 336.86 911.09 326.65 906.84C321.47 904.69 315.48 900.87 310.03 900.19C308.74 899.45 307.44 898.71 306.15 897.96C302.08 896.06 298.01 894.15 293.94 892.25C292.67 891.49 291.4 890.74 290.12 889.99C285.84 886.7 280.42 884.54 275.73 881.76C267.62 876.95 259.49 872.14 251.64 866.91C226 849.85 201.8 830.29 180.07 808.43C161.4 789.66 144.16 769.14 129.05 747.4C124.25 740.49 119.66 733.44 115.13 726.35C112.51 722.24 110.31 717.34 107.08 713.76C106.3 712.53 105.52 711.29 104.75 710.05C103.76 705.41 100.27 700.72 98.08 696.41C94.03 688.41 90.01 680.38 86.29 672.24C76.61 651.04 69.06 629.1 62.71 606.71C59.56 595.61 55.56 583.64 54.87 572.07C55.19 569.72 55.2 568.74 53.92 566.88C53.57 565.92 53.22 564.96 52.87 564C52.63 562.91 52.38 561.82 52.14 560.73C51.41 555.82 50.67 550.91 49.94 546C49.84 544.17 49.74 542.33 49.64 540.5C49.39 540.32 49.14 540.13 48.88 539.95C48.88 538.97 48.87 537.98 48.86 537C48.75 535.17 48.63 533.33 48.52 531.5C48.29 531.38 48.07 531.26 47.85 531.14C47.86 530.09 47.87 529.05 47.89 528C47.77 525.83 47.65 523.67 47.53 521.5C47.31 521.37 47.09 521.23 46.86 521.1C46.87 519.07 46.87 517.03 46.87 515C46.89 512.65 46.92 510.3 46.94 507.95C48.58 504.21 47.28 495.01 47.18 490.5C46.92 478.88 47.17 467.1 47.96 455.5C48.25 451.18 50.12 441.34 48.31 438C48.17 437.35 48.03 436.7 47.9 436.05C48.23 434.03 48.56 432.02 48.89 430C48.89 429.04 48.89 428.08 48.9 427.12C49.22 425.41 49.54 423.71 49.86 422C50.58 417 51.3 412 52.03 407C52.29 406 52.55 405 52.82 404C53.18 402.68 53.55 401.35 53.91 400.03C54.23 398.33 54.55 396.64 54.87 394.95C55.83 380.97 62.38 360.9 66.64 347.22C79 307.59 96.89 269.77 119.43 234.91C126.33 224.25 133.69 213.94 141.38 203.85C145.54 198.41 149.62 192.09 154.83 187.66C155.88 186.43 156.93 185.21 157.98 183.98C162.73 176.14 170.69 169.17 177.12 162.62C183.27 156.36 189.6 148.72 196.98 143.97C198.53 142.58 200.08 141.2 201.62 139.81C203.08 138.53 204.53 137.26 205.99 135.98C207.21 134.93 208.42 133.88 209.64 132.83C214.08 127.64 220.39 123.5 225.83 119.36C236.88 110.93 248.2 102.9 259.94 95.46C302.99 68.17 350.89 47.64 400.58 36.2C415.02 32.88 429.8 29.94 444.5 28.12C450.66 27.36 456.93 27.21 463 25.88C465.83 25.75 468.67 25.63 471.5 25.5C471.61 25.29 471.73 25.07 471.84 24.86ZM223.99 198.98C222.62 200.28 221.25 201.58 219.88 202.87C218.92 203.92 217.96 204.97 217 206.02C213.1 211.78 207.26 216.88 202.59 222.12C195.51 230.07 188.94 238.59 182.65 247.18C160.32 277.68 142.43 311.32 129.3 346.75C120.58 370.27 114.48 395.01 110.37 419.7C109.11 427.27 108.07 434.91 107.21 442.52C106.84 445.79 107.17 449.05 106.14 452.17C105.92 452.28 105.69 452.39 105.46 452.5C105.36 458.43 105.25 464.35 105.15 470.28C105.15 478.78 105.15 487.28 105.15 495.78C104.02 500.84 103.49 510.66 106.09 515.08C108.03 520.56 107.56 527.66 108.22 533.48C109.34 543.49 111.19 553.57 113.18 563.45C118.7 590.86 127.39 617.48 138.25 643.26C160.36 695.7 197.32 746.91 240.67 783.86C252.43 793.88 264.46 803.53 277.14 812.39C283.51 816.84 291.73 820.49 297.21 825.89C298.49 827.95 299.72 828.52 302.15 828.84C311 831.91 320.13 838.52 328.79 842.68C346.59 851.22 364.87 858.65 383.64 864.78C392.56 867.7 401.74 870.27 410.84 872.57C413.5 873.24 418.07 873.44 420.05 875.42C422.83 878.2 425.64 886.35 427.4 890.14C432.23 900.58 437.2 910.97 442.16 921.35C456.83 952.07 471.16 982.95 485.86 1013.65C489.86 1022 493.79 1030.38 497.69 1038.78C500.07 1043.91 502.13 1049.65 505.5 1054.19C533.83 994.5 562.17 934.81 590.5 875.11C594.63 873.59 599.05 872.84 603.31 871.69C613.38 868.95 623.46 866.18 633.29 862.72C667.76 850.59 700.63 835.01 730.88 814.39C844.08 737.22 910.3 606.48 905.09 469.5C904.32 449.42 902.63 429.27 898.76 409.56C889.79 363.86 873.33 319.22 849.33 279.18C842.54 267.85 835.22 256.79 827.38 246.15C823.67 241.12 819.07 236.4 815.95 231.02C814.91 229.78 813.87 228.53 812.83 227.29C809.52 224.46 806.91 220.78 803.95 217.57C797.54 210.62 791.16 203.69 784.38 197.11C764.91 178.22 743.62 161.33 720.85 146.61C609.01 74.32 471.19 64.93 348.76 115.28C317.28 128.23 287.61 146.46 260.67 167.12C252.03 173.74 243.78 180.88 235.65 188.12C231.74 191.61 228.3 196.05 223.99 198.98ZM608.93 275.86C609.29 276.07 609.65 276.29 610.01 276.5C610.03 278 610.05 279.5 610.07 281C601.75 326.76 593.43 372.52 585.11 418.28C584.9 418.35 584.69 418.43 584.48 418.5C584.32 420.83 584.16 423.17 584 425.5C584.33 425.72 584.66 425.93 584.99 426.15C586.28 427.45 587.57 428.74 588.86 430.03C589.07 430.37 589.29 430.7 589.5 431.03C591.17 430.93 592.83 430.82 594.5 430.72C594.61 430.45 594.71 430.19 594.82 429.93C599.83 424.86 604.85 419.8 609.87 414.73C610.91 413.49 611.96 412.25 613 411.01C629.17 393.12 645.33 375.22 661.5 357.33C665.19 362.61 669.4 380.43 671.81 387.6C672.92 390.88 673.5 395.84 676.31 398.16C680.31 401.45 693.46 396.97 698.5 395.88C712.18 392.93 725.84 390.02 739.46 386.84C746.54 385.19 754.83 382.15 762.01 382.5C760.13 390.74 756.83 398.66 754.21 406.68C749.76 420.26 745.44 433.87 740.9 447.42C739.02 453.04 732.9 466.75 735.53 472C737.21 475.33 742.21 476.66 745.31 478.17C751.41 481.13 767.54 487.48 771.63 491.5C736.44 517.1 701.98 543.7 666.87 569.42C657.84 576.03 648.84 582.67 639.97 589.49C634.99 593.32 629.92 597.51 628.56 604.06C627.5 609.16 631.02 615.97 632.68 620.75C636.7 632.33 640.74 643.94 644.8 655.5C634.96 655.27 622.21 651.34 612.28 649.34C592.44 645.33 572.44 641.54 552.53 637.84C545.57 636.55 538.64 635.04 531.68 633.71C527.46 632.9 523.13 631.43 519.1 633.61C514.76 635.94 514.82 640.16 514.88 644.5C514.96 651.56 514.81 658.66 515.61 665.67C516.21 670.93 515.98 676.22 516.3 681.5C517.36 698.83 518.7 716.16 519.76 733.5C520.34 742.96 520.45 752.59 521.62 762C521.24 762.61 520.87 763.21 520.5 763.82C519.99 764.22 519.48 764.62 518.97 765.02C509.24 764.85 499.51 764.67 489.79 764.5C490.02 753.48 490.95 742.47 491.81 731.5C493.02 715.88 493.3 700.15 494.25 684.5C495.2 668.93 497.32 652.69 495.86 637.12C495.3 634.55 494.52 633.7 491.95 633.1C483.36 631.01 463.09 637.02 453.45 638.8C436.85 641.87 420.18 645.01 403.63 648.26C391.24 650.69 378.79 653.71 366.3 655.5C367.14 650.98 369.16 646.6 370.65 642.22C373.44 634.02 376.38 625.87 379.22 617.69C380.84 613.02 383.61 607.48 382.11 602.48C380.16 595.97 375.13 592.43 369.98 588.52C361.25 581.91 352.36 575.54 343.61 568.95C318.49 550.03 293.22 531.2 267.81 512.67C258.41 505.82 248.61 499.07 239.78 491.5C249.41 483.43 266.5 480.84 275.94 471.9C276.26 471.76 276.57 471.63 276.89 471.5C277.24 468.75 277.43 467.03 276.01 464.84C267 437.39 257.99 409.95 248.98 382.5C255.99 381.83 264.58 385.19 271.55 386.82C285.17 390.02 298.86 392.76 312.52 395.86C317.44 396.98 330.92 401.48 334.86 398.35C338.14 395.73 338.84 389.32 340.11 385.55C343.23 376.24 345.47 366.22 349.5 357.28C358.34 367.17 367.19 377.06 376.03 386.95C376.81 389.2 377.75 390.14 379.97 391.08C389.21 398.68 398.59 411.49 407.01 420.49C410.26 423.96 414.25 430.24 419.5 430.28C423.81 430.32 426.92 426.74 426.76 422.52C426.41 413.57 423.14 403.05 421.43 394.14C416.09 366.31 411.19 338.4 405.85 310.54C404.39 302.95 402.96 295.39 401.58 287.79C400.77 283.35 399.4 279.09 400.5 274.78C412.97 280.38 425.14 286.96 437.33 293.16C441.61 295.35 447.61 299.96 452.5 299.23C455.86 297.03 457.18 293.1 459.04 289.58C462.03 283.91 465.03 278.24 468.05 272.58C475.94 257.8 483.71 242.96 491.71 228.24C496.25 219.88 500.15 210.83 505.5 202.97C510.34 209.63 513.66 217.67 517.58 224.92C526.26 240.95 534.66 257.14 543.37 273.15C546.77 279.4 553.41 295.41 558.5 299.1C564.27 299.22 569.39 295.54 574.48 292.97C581.78 289.27 589.06 285.54 596.37 281.86C600.46 279.8 604.59 277.21 608.93 275.86Z" fill="#db3737" fill-rule="evenodd" stroke="#db3737" stroke-width="0.25" stroke-linejoin="round"/>
<path d="M488.89 23.91C500.29 23.94 511.69 23.98 523.09 24.02C523.09 24.29 523.09 24.57 523.09 24.84C511.69 24.85 500.29 24.85 488.89 24.85C488.89 24.53 488.89 24.22 488.89 23.91ZM209.64 132.83C208.42 133.88 207.21 134.93 205.99 135.98C207.21 134.93 208.42 133.88 209.64 132.83ZM201.62 139.81C200.08 141.2 198.53 142.58 196.98 143.97C198.53 142.58 200.08 141.2 201.62 139.81ZM157.98 183.98C156.93 185.21 155.88 186.43 154.83 187.66C155.88 186.43 156.93 185.21 157.98 183.98ZM223.99 198.98C222.62 200.28 221.25 201.58 219.88 202.87C221.25 201.58 222.62 200.28 223.99 198.98ZM219.88 202.87C218.92 203.92 217.96 204.97 217 206.02C217.96 204.97 218.92 203.92 219.88 202.87ZM812.83 227.29C813.87 228.53 814.91 229.78 815.95 231.02C814.91 229.78 813.87 228.53 812.83 227.29ZM610.07 281C610.05 279.5 610.03 278 610.01 276.5C609.65 276.29 609.29 276.07 608.93 275.86C609.45 275.48 609.98 275.1 610.5 274.73C611.07 277.23 611.34 278.76 610.07 281ZM376.03 386.95C377.35 388.33 378.66 389.71 379.97 391.08C377.75 390.14 376.81 389.2 376.03 386.95ZM54.87 394.95C54.55 396.64 54.23 398.33 53.91 400.03C54.23 398.33 54.55 396.64 54.87 394.95ZM613 411.01C611.96 412.25 610.91 413.49 609.87 414.73C610.91 413.49 611.96 412.25 613 411.01ZM585.11 418.28C585.07 420.9 585.03 423.53 584.99 426.15C584.66 425.93 584.33 425.72 584 425.5C584.16 423.17 584.32 420.83 584.48 418.5C584.69 418.43 584.9 418.35 585.11 418.28ZM588.86 430.03C590.84 430 592.83 429.96 594.82 429.93C594.71 430.19 594.61 430.45 594.5 430.72C592.83 430.82 591.17 430.93 589.5 431.03C589.29 430.7 589.07 430.37 588.86 430.03ZM48.31 438C50.12 441.34 48.25 451.18 47.96 455.5C47.17 467.1 46.92 478.88 47.18 490.5C47.28 495.01 48.58 504.21 46.94 507.95C46.59 507.59 46.24 507.23 45.9 506.87C45.88 491.88 45.87 476.9 45.86 461.92C46.09 461.78 46.31 461.64 46.54 461.5C46.63 459 46.72 456.5 46.8 454C46.83 451.37 46.86 448.74 46.88 446.1C47.14 445.9 47.39 445.7 47.64 445.5C47.71 443.67 47.78 441.83 47.85 440C48 439.33 48.15 438.67 48.31 438ZM106.14 452.17C105.81 458.21 105.48 464.24 105.15 470.28C105.25 464.35 105.36 458.43 105.46 452.5C105.69 452.39 105.92 452.28 106.14 452.17ZM276.01 464.84C277.43 467.03 277.24 468.75 276.89 471.5C276.57 471.63 276.26 471.76 275.94 471.9C275.96 469.54 275.98 467.19 276.01 464.84ZM964.18 468.68C964.5 468.68 964.82 468.68 965.14 468.68C964.95 477.45 964.75 486.23 964.56 495C963.11 492.55 963.63 489.42 963.63 486.5C963.64 480.64 963.01 474.38 964.18 468.68ZM105.15 495.78C105.46 502.21 105.78 508.65 106.09 515.08C103.49 510.66 104.02 500.84 105.15 495.78ZM53.92 566.88C55.2 568.74 55.19 569.72 54.87 572.07C54.55 570.34 54.23 568.61 53.92 566.88ZM491.95 633.1C494.52 633.7 495.3 634.55 495.86 637.12C494.55 635.78 493.25 634.44 491.95 633.1ZM521.62 762C521.58 763.02 521.54 764.04 521.5 765.06C520.66 765.05 519.81 765.04 518.97 765.02C519.48 764.62 519.99 764.22 520.5 763.82C520.87 763.21 521.24 762.61 521.62 762ZM297.21 825.89C298.86 826.87 300.5 827.86 302.15 828.84C299.72 828.52 298.49 827.95 297.21 825.89ZM807.99 829C806.76 830.05 805.52 831.09 804.28 832.13C805.52 831.09 806.76 830.05 807.99 829Z" fill="#b84d4d" fill-rule="evenodd" stroke="#b84d4d" stroke-width="0.25" stroke-linejoin="round"/>
</svg>
